<mxfile host="app.diagrams.net" agent="Mozilla/5.0 (Macintosh; Intel Mac OS X 10.15; rv:137.0) Gecko/20100101 Firefox/137.0" version="27.0.5">
  <diagram name="Page-1" id="d1vjwxluklCiD5EcFsX2">
    <mxGraphModel dx="1138" dy="1778" grid="1" gridSize="10" guides="1" tooltips="1" connect="1" arrows="1" fold="1" page="1" pageScale="1" pageWidth="850" pageHeight="1100" math="0" shadow="0">
      <root>
        <mxCell id="0" />
        <mxCell id="1" parent="0" />
        <mxCell id="awbqlO3b8IWFAWvkPjFu-1" value="Fname" style="rounded=0;whiteSpace=wrap;html=1;" vertex="1" parent="1">
          <mxGeometry x="230" y="340" width="120" height="30" as="geometry" />
        </mxCell>
        <mxCell id="awbqlO3b8IWFAWvkPjFu-2" value="Minit" style="rounded=0;whiteSpace=wrap;html=1;" vertex="1" parent="1">
          <mxGeometry x="350" y="340" width="120" height="30" as="geometry" />
        </mxCell>
        <mxCell id="awbqlO3b8IWFAWvkPjFu-3" value="Lname" style="rounded=0;whiteSpace=wrap;html=1;" vertex="1" parent="1">
          <mxGeometry x="470" y="340" width="120" height="30" as="geometry" />
        </mxCell>
        <mxCell id="awbqlO3b8IWFAWvkPjFu-4" value="Sex" style="rounded=0;whiteSpace=wrap;html=1;" vertex="1" parent="1">
          <mxGeometry x="590" y="340" width="120" height="30" as="geometry" />
        </mxCell>
        <mxCell id="awbqlO3b8IWFAWvkPjFu-5" value="Address" style="rounded=0;whiteSpace=wrap;html=1;" vertex="1" parent="1">
          <mxGeometry x="710" y="340" width="120" height="30" as="geometry" />
        </mxCell>
        <mxCell id="awbqlO3b8IWFAWvkPjFu-6" value="Salary" style="rounded=0;whiteSpace=wrap;html=1;" vertex="1" parent="1">
          <mxGeometry x="830" y="340" width="120" height="30" as="geometry" />
        </mxCell>
        <mxCell id="awbqlO3b8IWFAWvkPjFu-7" value="SSN" style="rounded=0;whiteSpace=wrap;html=1;fontStyle=4" vertex="1" parent="1">
          <mxGeometry x="110" y="340" width="120" height="30" as="geometry" />
        </mxCell>
        <mxCell id="awbqlO3b8IWFAWvkPjFu-9" style="edgeStyle=orthogonalEdgeStyle;rounded=0;orthogonalLoop=1;jettySize=auto;html=1;entryX=0.5;entryY=1;entryDx=0;entryDy=0;exitX=0.5;exitY=1;exitDx=0;exitDy=0;" edge="1" parent="1" source="awbqlO3b8IWFAWvkPjFu-8" target="awbqlO3b8IWFAWvkPjFu-7">
          <mxGeometry relative="1" as="geometry">
            <Array as="points">
              <mxPoint x="1130" y="400" />
              <mxPoint x="170" y="400" />
            </Array>
          </mxGeometry>
        </mxCell>
        <mxCell id="awbqlO3b8IWFAWvkPjFu-8" value="SuperSSN" style="rounded=0;whiteSpace=wrap;html=1;" vertex="1" parent="1">
          <mxGeometry x="1070" y="340" width="120" height="30" as="geometry" />
        </mxCell>
        <mxCell id="awbqlO3b8IWFAWvkPjFu-10" value="&lt;div align=&quot;left&quot;&gt;EMPLOYEE&lt;/div&gt;" style="text;html=1;align=left;verticalAlign=middle;whiteSpace=wrap;rounded=0;" vertex="1" parent="1">
          <mxGeometry x="108" y="309" width="60" height="30" as="geometry" />
        </mxCell>
        <mxCell id="awbqlO3b8IWFAWvkPjFu-11" value="DName" style="rounded=0;whiteSpace=wrap;html=1;fontStyle=4" vertex="1" parent="1">
          <mxGeometry x="111" y="460" width="120" height="30" as="geometry" />
        </mxCell>
        <mxCell id="awbqlO3b8IWFAWvkPjFu-12" value="DNumber" style="rounded=0;whiteSpace=wrap;html=1;fontStyle=4" vertex="1" parent="1">
          <mxGeometry x="231" y="460" width="120" height="30" as="geometry" />
        </mxCell>
        <mxCell id="awbqlO3b8IWFAWvkPjFu-15" style="edgeStyle=orthogonalEdgeStyle;rounded=0;orthogonalLoop=1;jettySize=auto;html=1;exitX=0.5;exitY=1;exitDx=0;exitDy=0;entryX=0.605;entryY=1.019;entryDx=0;entryDy=0;entryPerimeter=0;" edge="1" parent="1" source="awbqlO3b8IWFAWvkPjFu-14" target="awbqlO3b8IWFAWvkPjFu-12">
          <mxGeometry relative="1" as="geometry">
            <mxPoint x="1249.5" y="470" as="sourcePoint" />
            <mxPoint x="300" y="490" as="targetPoint" />
            <Array as="points">
              <mxPoint x="1250" y="510" />
              <mxPoint x="304" y="510" />
            </Array>
          </mxGeometry>
        </mxCell>
        <mxCell id="awbqlO3b8IWFAWvkPjFu-14" value="DNumber" style="rounded=0;whiteSpace=wrap;html=1;" vertex="1" parent="1">
          <mxGeometry x="1190" y="340" width="120" height="30" as="geometry" />
        </mxCell>
        <mxCell id="awbqlO3b8IWFAWvkPjFu-17" value="DEPARTMENT" style="text;html=1;align=left;verticalAlign=middle;whiteSpace=wrap;rounded=0;" vertex="1" parent="1">
          <mxGeometry x="109" y="428" width="60" height="30" as="geometry" />
        </mxCell>
        <mxCell id="awbqlO3b8IWFAWvkPjFu-18" value="MgrSSN" style="rounded=0;whiteSpace=wrap;html=1;fontStyle=0" vertex="1" parent="1">
          <mxGeometry x="351" y="460" width="120" height="30" as="geometry" />
        </mxCell>
        <mxCell id="awbqlO3b8IWFAWvkPjFu-19" style="edgeStyle=orthogonalEdgeStyle;rounded=0;orthogonalLoop=1;jettySize=auto;html=1;entryX=0.417;entryY=1.019;entryDx=0;entryDy=0;entryPerimeter=0;" edge="1" parent="1" source="awbqlO3b8IWFAWvkPjFu-18" target="awbqlO3b8IWFAWvkPjFu-7">
          <mxGeometry relative="1" as="geometry">
            <Array as="points">
              <mxPoint x="411" y="420" />
              <mxPoint x="160" y="420" />
            </Array>
          </mxGeometry>
        </mxCell>
        <mxCell id="awbqlO3b8IWFAWvkPjFu-20" value="MgrStartDate" style="rounded=0;whiteSpace=wrap;html=1;fontStyle=0" vertex="1" parent="1">
          <mxGeometry x="471" y="460" width="120" height="30" as="geometry" />
        </mxCell>
        <mxCell id="awbqlO3b8IWFAWvkPjFu-21" value="BirthDate" style="rounded=0;whiteSpace=wrap;html=1;" vertex="1" parent="1">
          <mxGeometry x="950" y="340" width="120" height="30" as="geometry" />
        </mxCell>
        <mxCell id="awbqlO3b8IWFAWvkPjFu-22" value="PName" style="rounded=0;whiteSpace=wrap;html=1;fontStyle=4" vertex="1" parent="1">
          <mxGeometry x="110" y="570" width="120" height="30" as="geometry" />
        </mxCell>
        <mxCell id="awbqlO3b8IWFAWvkPjFu-23" value="PROJECT" style="text;html=1;align=left;verticalAlign=middle;whiteSpace=wrap;rounded=0;" vertex="1" parent="1">
          <mxGeometry x="109" y="540" width="60" height="30" as="geometry" />
        </mxCell>
        <mxCell id="awbqlO3b8IWFAWvkPjFu-24" value="PNumber" style="rounded=0;whiteSpace=wrap;html=1;fontStyle=4" vertex="1" parent="1">
          <mxGeometry x="230" y="570" width="120" height="30" as="geometry" />
        </mxCell>
        <mxCell id="awbqlO3b8IWFAWvkPjFu-25" value="Location" style="rounded=0;whiteSpace=wrap;html=1;fontStyle=0" vertex="1" parent="1">
          <mxGeometry x="350" y="570" width="120" height="30" as="geometry" />
        </mxCell>
        <mxCell id="awbqlO3b8IWFAWvkPjFu-27" style="edgeStyle=orthogonalEdgeStyle;rounded=0;orthogonalLoop=1;jettySize=auto;html=1;entryX=0.5;entryY=1;entryDx=0;entryDy=0;" edge="1" parent="1" source="awbqlO3b8IWFAWvkPjFu-26" target="awbqlO3b8IWFAWvkPjFu-12">
          <mxGeometry relative="1" as="geometry">
            <Array as="points">
              <mxPoint x="530" y="520" />
              <mxPoint x="291" y="520" />
            </Array>
          </mxGeometry>
        </mxCell>
        <mxCell id="awbqlO3b8IWFAWvkPjFu-26" value="DNumber" style="rounded=0;whiteSpace=wrap;html=1;fontStyle=0" vertex="1" parent="1">
          <mxGeometry x="470" y="570" width="120" height="30" as="geometry" />
        </mxCell>
        <mxCell id="awbqlO3b8IWFAWvkPjFu-30" style="edgeStyle=orthogonalEdgeStyle;rounded=0;orthogonalLoop=1;jettySize=auto;html=1;entryX=0.333;entryY=0.974;entryDx=0;entryDy=0;entryPerimeter=0;exitX=0.5;exitY=1;exitDx=0;exitDy=0;" edge="1" parent="1" source="awbqlO3b8IWFAWvkPjFu-28" target="awbqlO3b8IWFAWvkPjFu-7">
          <mxGeometry relative="1" as="geometry">
            <mxPoint x="150" y="380" as="targetPoint" />
            <Array as="points">
              <mxPoint x="169" y="720" />
              <mxPoint x="90" y="720" />
              <mxPoint x="90" y="420" />
              <mxPoint x="150" y="420" />
            </Array>
          </mxGeometry>
        </mxCell>
        <mxCell id="awbqlO3b8IWFAWvkPjFu-28" value="ESSN" style="rounded=0;whiteSpace=wrap;html=1;fontStyle=4" vertex="1" parent="1">
          <mxGeometry x="110" y="670" width="120" height="30" as="geometry" />
        </mxCell>
        <mxCell id="awbqlO3b8IWFAWvkPjFu-29" value="WORKS ON" style="text;html=1;align=left;verticalAlign=middle;whiteSpace=wrap;rounded=0;" vertex="1" parent="1">
          <mxGeometry x="109" y="640" width="92" height="30" as="geometry" />
        </mxCell>
        <mxCell id="awbqlO3b8IWFAWvkPjFu-32" style="edgeStyle=orthogonalEdgeStyle;rounded=0;orthogonalLoop=1;jettySize=auto;html=1;entryX=0.5;entryY=1;entryDx=0;entryDy=0;" edge="1" parent="1" source="awbqlO3b8IWFAWvkPjFu-31" target="awbqlO3b8IWFAWvkPjFu-24">
          <mxGeometry relative="1" as="geometry" />
        </mxCell>
        <mxCell id="awbqlO3b8IWFAWvkPjFu-31" value="PNumber" style="rounded=0;whiteSpace=wrap;html=1;fontStyle=4" vertex="1" parent="1">
          <mxGeometry x="230" y="670" width="120" height="30" as="geometry" />
        </mxCell>
        <mxCell id="awbqlO3b8IWFAWvkPjFu-33" value="Hours" style="rounded=0;whiteSpace=wrap;html=1;fontStyle=0" vertex="1" parent="1">
          <mxGeometry x="350" y="670" width="120" height="30" as="geometry" />
        </mxCell>
        <mxCell id="awbqlO3b8IWFAWvkPjFu-41" style="edgeStyle=orthogonalEdgeStyle;rounded=0;orthogonalLoop=1;jettySize=auto;html=1;entryX=0.25;entryY=1;entryDx=0;entryDy=0;exitX=0.5;exitY=1;exitDx=0;exitDy=0;" edge="1" parent="1" source="awbqlO3b8IWFAWvkPjFu-35" target="awbqlO3b8IWFAWvkPjFu-7">
          <mxGeometry relative="1" as="geometry">
            <Array as="points">
              <mxPoint x="169" y="840" />
              <mxPoint x="70" y="840" />
              <mxPoint x="70" y="400" />
              <mxPoint x="140" y="400" />
            </Array>
          </mxGeometry>
        </mxCell>
        <mxCell id="awbqlO3b8IWFAWvkPjFu-35" value="ESSN" style="rounded=0;whiteSpace=wrap;html=1;fontStyle=4" vertex="1" parent="1">
          <mxGeometry x="109" y="790" width="120" height="30" as="geometry" />
        </mxCell>
        <mxCell id="awbqlO3b8IWFAWvkPjFu-36" value="DEPENDENT" style="text;html=1;align=left;verticalAlign=middle;whiteSpace=wrap;rounded=0;" vertex="1" parent="1">
          <mxGeometry x="108" y="760" width="92" height="30" as="geometry" />
        </mxCell>
        <mxCell id="awbqlO3b8IWFAWvkPjFu-37" value="Name" style="rounded=0;whiteSpace=wrap;html=1;fontStyle=4" vertex="1" parent="1">
          <mxGeometry x="229" y="790" width="120" height="30" as="geometry" />
        </mxCell>
        <mxCell id="awbqlO3b8IWFAWvkPjFu-38" value="Sex" style="rounded=0;whiteSpace=wrap;html=1;fontStyle=0" vertex="1" parent="1">
          <mxGeometry x="349" y="790" width="120" height="30" as="geometry" />
        </mxCell>
        <mxCell id="awbqlO3b8IWFAWvkPjFu-39" value="BirthDate" style="rounded=0;whiteSpace=wrap;html=1;fontStyle=0" vertex="1" parent="1">
          <mxGeometry x="469" y="790" width="120" height="30" as="geometry" />
        </mxCell>
        <mxCell id="awbqlO3b8IWFAWvkPjFu-40" value="Relationship" style="rounded=0;whiteSpace=wrap;html=1;fontStyle=0" vertex="1" parent="1">
          <mxGeometry x="589" y="790" width="120" height="30" as="geometry" />
        </mxCell>
      </root>
    </mxGraphModel>
  </diagram>
</mxfile>
